<?xml version="1.0" standalone="no"?>
<!DOCTYPE svg PUBLIC "-//W3C//DTD SVG 20010904//EN"
 "http://www.w3.org/TR/2001/REC-SVG-20010904/DTD/svg10.dtd">
<svg version="1.0" xmlns="http://www.w3.org/2000/svg"
 width="612.000000pt" height="612.000000pt" viewBox="0 0 612.000000 612.000000"
 preserveAspectRatio="xMidYMid meet">
<metadata>
Created by potrace 1.11, written by Peter Selinger 2001-2013
</metadata>
<g transform="translate(0.000000,612.000000) scale(0.100000,-0.100000)"
fill="#000000" stroke="none">
<path d="M2947 6114 c-1 -1 -45 -5 -97 -8 -475 -31 -955 -183 -1365 -431 -545
-330 -984 -834 -1229 -1410 -61 -142 -62 -144 -99 -260 -106 -328 -150 -606
-150 -950 0 -217 18 -415 53 -575 5 -25 12 -56 14 -70 7 -37 42 -177 61 -240
98 -326 270 -667 469 -933 111 -147 150 -192 306 -348 159 -160 296 -272 465
-384 178 -117 275 -169 512 -276 111 -50 437 -149 568 -173 17 -3 44 -8 60
-11 17 -3 54 -10 83 -15 30 -5 88 -13 130 -17 98 -10 563 -10 662 -1 263 26
627 119 855 219 202 88 386 188 537 291 l88 60 -35 24 c-19 13 -50 40 -68 61
-17 20 -77 87 -131 148 -55 60 -131 146 -170 189 -39 44 -92 102 -117 129
l-46 50 -65 -99 c-36 -54 -95 -145 -132 -202 -37 -57 -70 -102 -72 -99 -3 2
-7 15 -9 28 -3 13 -7 35 -10 49 -2 14 -7 41 -10 60 -3 19 -8 42 -10 50 -2 8
-7 30 -10 48 -3 18 -12 64 -20 102 -8 38 -17 82 -20 97 -2 16 -10 53 -16 83
-6 30 -12 64 -14 75 -2 11 -11 56 -20 100 -9 44 -18 91 -21 105 -2 14 -7 39
-11 55 -9 41 -10 45 -17 85 -3 19 -12 64 -20 100 -8 36 -12 67 -10 69 5 5 41
-5 404 -119 91 -28 199 -62 240 -75 41 -12 113 -35 160 -50 47 -15 128 -39
180 -55 124 -37 159 -51 140 -57 -15 -5 -29 -11 -130 -56 -30 -13 -121 -52
-201 -86 -137 -59 -146 -64 -130 -80 27 -29 113 -125 266 -297 14 -16 68 -76
159 -177 57 -63 81 -98 85 -123 l6 -34 50 42 c28 23 97 88 153 143 351 340
606 743 769 1220 36 104 88 302 98 371 4 21 8 46 11 55 2 9 7 34 10 55 3 22
11 82 18 134 15 104 19 565 6 665 -4 33 -11 85 -15 115 -9 77 -44 259 -56 297
-6 17 -12 44 -15 60 -8 45 -83 271 -121 363 -159 391 -403 753 -704 1045 -142
137 -155 148 -311 266 -346 260 -757 446 -1188 537 -94 20 -117 24 -215 37
-27 4 -61 9 -75 11 -65 10 -454 25 -463 18z m-1974 -2486 c3 -13 31 -168 63
-345 32 -178 61 -323 64 -323 3 0 35 150 70 333 34 182 65 338 68 345 3 10 43
12 170 10 l166 -3 66 -342 c36 -188 68 -345 71 -347 3 -3 27 115 53 262 27
147 55 304 64 350 l15 82 194 0 195 0 -6 -22 c-3 -13 -70 -283 -148 -600
l-142 -578 -197 0 c-148 0 -198 3 -201 13 -3 6 -34 159 -69 338 l-64 326 -65
-336 -66 -336 -199 0 -199 0 -148 590 c-80 325 -147 593 -147 598 -1 4 86 7
193 7 193 0 194 0 199 -22z m1676 -95 c70 -378 109 -587 111 -583 1 3 32 160
69 350 l68 345 166 3 c151 2 166 1 171 -15 3 -10 33 -162 66 -338 34 -176 64
-327 67 -335 4 -11 131 639 133 683 0 4 88 7 195 7 107 0 195 -3 195 -7 0 -5
-67 -273 -148 -598 l-148 -590 -198 0 -199 0 -66 335 -67 335 -63 -325 c-35
-179 -66 -331 -69 -337 -3 -10 -52 -13 -201 -13 l-196 0 -144 583 c-79 320
-146 590 -149 600 -4 16 10 17 191 17 l195 0 21 -117z m1653 35 c9 -46 37
-203 64 -350 26 -147 50 -265 53 -262 3 2 34 158 71 347 l66 342 167 3 c166 2
167 2 172 -20 3 -13 34 -171 69 -353 35 -181 66 -323 69 -315 4 8 31 157 62
330 31 173 59 325 62 338 5 22 6 22 199 22 l194 0 -5 -22 c-3 -13 -70 -282
-148 -598 l-142 -575 -200 0 -200 0 -66 335 -66 334 -62 -319 c-34 -176 -65
-328 -67 -337 -5 -16 -23 -18 -203 -18 l-197 0 -144 583 c-79 320 -145 590
-148 600 -4 16 10 17 191 17 l194 0 15 -82z"/>
</g>
</svg>
